<svg width="20" height="20" viewBox="0 0 20 20" fill="none" xmlns="http://www.w3.org/2000/svg">
<path fill-rule="evenodd" clip-rule="evenodd" d="M19 2H16V1C16 0.447715 15.5523 0 15 0H5C4.44772 0 4 0.447715 4 1V2H1C0.447715 2 0 2.44772 0 3V6C0 8.20914 1.79086 10 4 10H5.54C6.44453 11.0091 7.66406 11.6824 9 11.91V14H8C6.34315 14 5 15.3431 5 17V19C5 19.5523 5.44772 20 6 20H14C14.5523 20 15 19.5523 15 19V17C15 15.3431 13.6569 14 12 14H11V11.91C12.3359 11.6824 13.5555 11.0091 14.46 10H16C18.2091 10 20 8.20914 20 6V3C20 2.44772 19.5523 2 19 2ZM4 8C2.89543 8 2 7.10457 2 6V4H4V6C4.0022 6.68171 4.12056 7.35806 4.35 8H4ZM13 17C13 16.4477 12.5523 16 12 16H8C7.44772 16 7 16.4477 7 17V18H13V17ZM14 6C14 8.20914 12.2091 10 10 10C7.79086 10 6 8.20914 6 6V2H14V6ZM16 8C17.1046 8 18 7.10457 18 6V4H16V6C15.9978 6.68171 15.8794 7.35806 15.65 8H16Z" fill="#1F8CFF"/>
</svg>
