<svg width="18" height="20" viewBox="0 0 18 20" fill="none" xmlns="http://www.w3.org/2000/svg">
<path fill-rule="evenodd" clip-rule="evenodd" d="M17 6.01673L11 0.763019C9.86122 -0.25434 8.13884 -0.25434 7.00005 0.763019L1.00009 6.01673C0.357537 6.59072 -0.00675747 7.41304 9.49598e-05 8.27403V17.0036C9.49598e-05 18.6585 1.34323 20 3.00007 20H15C16.6568 20 18 18.6585 18 17.0036V8.26404C18.0039 7.40653 17.6399 6.5884 17 6.01673ZM11 18.0024H7.00005V13.0084C7.00005 12.4567 7.44776 12.0096 8.00004 12.0096H10C10.5523 12.0096 11 12.4567 11 13.0084V18.0024ZM15 18.0024C15.5523 18.0024 16 17.5552 16 17.0036V8.26404C15.9996 7.97716 15.8758 7.70428 15.66 7.51494L9.66003 2.27121C9.28252 1.93996 8.71754 1.93996 8.34004 2.27121L2.34008 7.51494C2.1243 7.70428 2.00044 7.97716 2.00008 8.26404V17.0036C2.00008 17.5552 2.44779 18.0024 3.00007 18.0024H5.00006V13.0084C5.00006 11.3535 6.3432 10.012 8.00004 10.012H10C11.6569 10.012 13 11.3535 13 13.0084V18.0024H15Z" fill="#CDCED1"/>
</svg>
