<svg width="20" height="20" viewBox="0 0 20 20" fill="none" xmlns="http://www.w3.org/2000/svg">
<path fill-rule="evenodd" clip-rule="evenodd" d="M2 18H19C19.5523 18 20 18.4477 20 19C20 19.5523 19.5523 20 19 20H1C0.447715 20 0 19.5523 0 19V1C0 0.447715 0.447715 0 1 0C1.55228 0 2 0.447715 2 1V18ZM7 12.5C7 13.3284 6.32843 14 5.5 14C4.67157 14 4 13.3284 4 12.5C4 11.6716 4.67157 11 5.5 11L8.5 8C8.5 7.17157 9.17157 6.5 10 6.5C10.8284 6.5 11.5 7.17157 11.5 8L13.23 9.76H13.39L17 6.15C16.9951 6.10012 16.9951 6.04988 17 6C17 5.17157 17.6716 4.5 18.5 4.5C19.3284 4.5 20 5.17157 20 6C20 6.82843 19.3284 7.5 18.5 7.5L14.86 11.17V11.25C14.86 12.0784 14.1884 12.75 13.36 12.75C12.5316 12.75 11.86 12.0784 11.86 11.25V11.17L10.25 9.56H10.02H9.79L7 12.35C7.00488 12.3999 7.00488 12.4501 7 12.5Z" fill="#CDCED1"/>
</svg>
